<svg width="20" height="20" viewBox="0 0 20 20" fill="none" xmlns="http://www.w3.org/2000/svg">
  <path d="M2.5 5H4.16667H17.5" stroke="white" stroke-width="2" stroke-linecap="round" stroke-linejoin="round"/>
  <path d="M6.66602 5.00016V3.3335C6.66602 2.89147 6.84161 2.46754 7.15417 2.15498C7.46673 1.84242 7.89065 1.66683 8.33268 1.66683H11.6660C12.1081 1.66683 12.532 1.84242 12.8446 2.15498C13.1571 2.46754 13.3327 2.89147 13.3327 3.3335V5.00016M15.8327 5.00016V16.6668C15.8327 17.1089 15.6571 17.5328 15.3446 17.8454C15.032 18.1579 14.6081 18.3335 14.166 18.3335H5.83268C5.39065 18.3335 4.96673 18.1579 4.65417 17.8454C4.34161 17.5328 4.16602 17.1089 4.16602 16.6668V5.00016H15.8327Z" stroke="white" stroke-width="2" stroke-linecap="round" stroke-linejoin="round"/>
  <path d="M8.33398 9.1665V14.1665" stroke="white" stroke-width="2" stroke-linecap="round" stroke-linejoin="round"/>
  <path d="M11.666 9.1665V14.1665" stroke="white" stroke-width="2" stroke-linecap="round" stroke-linejoin="round"/>
</svg>
