<svg width="25" height="25" viewBox="0 0 25 25" fill="none" xmlns="http://www.w3.org/2000/svg">
<path fill-rule="evenodd" clip-rule="evenodd" d="M24.6592 24.6595C24.2051 25.1135 23.5241 25.1135 23.0702 24.6595L21.7529 23.3422C18.8209 20.4102 13.9703 20.5832 9.82691 20.4238C7.34455 20.3282 4.88911 19.3327 2.9796 17.452C-0.993201 13.4792 -0.993201 7.00911 2.9796 2.97961C6.9524 -0.993203 13.4225 -0.993203 17.452 2.97961C19.3629 4.89051 20.358 7.3479 20.4449 9.83187C20.5899 13.9759 20.4103 18.821 23.3423 21.7531L24.6595 23.0702C25.1135 23.5241 25.1133 24.2623 24.6592 24.6595ZM15.8625 4.62578C12.7412 1.50446 7.74654 1.50446 4.6255 4.62578C1.50418 7.7471 1.50418 12.7417 4.6255 15.8628C7.74682 18.9841 12.7414 18.9841 15.8625 15.8628C18.984 12.7414 18.984 7.74736 15.8625 4.62578Z" fill="#C61D35"/>
</svg>
