<svg width="20" height="26" viewBox="0 0 20 26" fill="none" xmlns="http://www.w3.org/2000/svg">
<path d="M16.25 1.62488C17.1486 1.62488 17.8751 2.35112 17.8751 3.24988V22.7501C17.8751 23.6471 17.1486 24.3751 16.25 24.3751H3.25006C2.35299 24.3751 1.625 23.6471 1.625 22.7501V3.24988C1.625 2.35112 2.35299 1.62488 3.25006 1.62488H16.25ZM16.25 0H3.25006C1.45929 0 0 1.45748 0 3.24988V22.7501C0 24.5423 1.45929 26 3.25006 26H16.25C18.0423 26 19.5001 24.5423 19.5001 22.7501V3.24988C19.5001 1.45748 18.0423 0 16.25 0Z" fill="#1D2B3A"/>
<path d="M6.5 10.5624C6.5 10.1121 6.864 9.75012 7.31244 9.75012H15.4375C15.8876 9.75012 16.2501 10.1121 16.2501 10.5624C16.2501 11.011 15.8876 11.375 15.4375 11.375H7.31244C6.864 11.375 6.5 11.011 6.5 10.5624Z" fill="#1D2B3A"/>
<path d="M6.5 5.68762C6.5 5.23737 6.864 4.875 7.31244 4.875H15.4375C15.8876 4.875 16.2501 5.23737 16.2501 5.68762C16.2501 6.13613 15.8876 6.50012 15.4375 6.50012H7.31244C6.864 6.50012 6.5 6.13613 6.5 5.68762Z" fill="#1D2B3A"/>
<path d="M6.5 15.4375C6.5 14.9872 6.864 14.625 7.31244 14.625H15.4375C15.8876 14.625 16.2501 14.9872 16.2501 15.4375C16.2501 15.886 15.8876 16.25 15.4375 16.25H7.31244C6.864 16.25 6.5 15.886 6.5 15.4375Z" fill="#1D2B3A"/>
<path d="M6.5 20.3125C6.5 19.8621 6.864 19.5 7.31244 19.5H15.4375C15.8876 19.5 16.2501 19.8621 16.2501 20.3125C16.2501 20.761 15.8876 21.125 15.4375 21.125H7.31244C6.864 21.125 6.5 20.761 6.5 20.3125Z" fill="#1D2B3A"/>
<path d="M3.25 10.5624C3.25 10.1121 3.614 9.75012 4.06244 9.75012C4.51256 9.75012 4.875 10.1121 4.875 10.5624C4.875 11.011 4.51256 11.375 4.06244 11.375C3.614 11.375 3.25 11.011 3.25 10.5624Z" fill="#1D2B3A"/>
<path d="M3.25 5.68762C3.25 5.23737 3.614 4.875 4.06244 4.875C4.51256 4.875 4.875 5.23737 4.875 5.68762C4.875 6.13613 4.51256 6.50012 4.06244 6.50012C3.614 6.50012 3.25 6.13613 3.25 5.68762Z" fill="#1D2B3A"/>
<path d="M3.25 15.4375C3.25 14.9872 3.614 14.625 4.06244 14.625C4.51256 14.625 4.875 14.9872 4.875 15.4375C4.875 15.886 4.51256 16.25 4.06244 16.25C3.614 16.25 3.25 15.886 3.25 15.4375Z" fill="#1D2B3A"/>
<path d="M3.25 20.3125C3.25 19.8621 3.614 19.5 4.06244 19.5C4.51256 19.5 4.875 19.8621 4.875 20.3125C4.875 20.761 4.51256 21.125 4.06244 21.125C3.614 21.125 3.25 20.761 3.25 20.3125Z" fill="#1D2B3A"/>
</svg>
