<svg width="27" height="27" viewBox="0 0 27 27" fill="none" xmlns="http://www.w3.org/2000/svg">
<path d="M3.95228 23.0067C6.15196 25.198 9.03856 26.566 12.1277 26.881C15.2167 27.1958 18.3201 26.4385 20.917 24.7359C21.6445 24.2549 22.1172 23.4723 22.2047 22.6046C22.292 21.7369 21.9846 20.8757 21.3676 20.2595L20.8494 19.7473L21.5331 19.0636C21.9767 18.6193 22.1777 17.988 22.0723 17.3691C21.9669 16.7503 21.5684 16.221 21.0027 15.9485L17.1426 14.0874C16.8438 13.9433 16.4862 14.0076 16.2565 14.247L15.0485 15.5009H15.0118C13.3912 14.852 12.1093 13.5645 11.4673 11.9412L12.7212 10.6873C12.9537 10.4588 13.0167 10.1083 12.8777 9.81338L11.0074 5.947C10.7345 5.38197 10.2048 4.98393 9.58603 4.87935C8.96708 4.77455 8.33595 4.97581 7.89214 5.41959L7.16241 6.14631C6.33731 6.97294 5.76692 8.01919 5.51966 9.16086C5.27221 10.3025 5.35819 11.491 5.76754 12.5852C6.50477 14.5515 7.65498 16.3369 9.14049 17.821C10.6263 19.305 12.413 20.4533 14.3799 21.1884C16.1239 21.8401 18.0703 21.6546 19.6598 20.6856C19.6908 20.738 19.7278 20.7863 19.7701 20.8297L20.2822 21.3418C20.5735 21.6326 20.7187 22.0387 20.6776 22.4483C20.6366 22.8577 20.4137 23.2271 20.0706 23.4544C17.7702 24.9598 15.0222 25.6291 12.2872 25.3499C9.55199 25.0708 6.99599 23.8603 5.04689 21.9213C3.52284 20.3994 2.4381 18.494 1.90722 16.4068C1.3764 14.3194 1.41939 12.1274 2.03128 10.0622C2.64339 7.99706 3.80172 6.13573 5.38413 4.67458C7.58787 2.66122 10.4623 1.53985 13.4474 1.52918C16.4324 1.51827 19.3145 2.61883 21.533 4.61622C23.3294 6.23779 24.5884 8.3686 25.1423 10.7243C25.696 13.0798 25.5186 15.5484 24.6329 17.8003C24.4729 18.1949 24.6631 18.6445 25.0577 18.8045C25.452 18.9644 25.9016 18.7743 26.0618 18.3799C27.0664 15.8368 27.2697 13.0474 26.6452 10.3851C26.0205 7.72308 24.5974 5.3155 22.5665 3.48429C20.0635 1.23029 16.8116 -0.011686 13.4433 8.28812e-05C10.075 0.0120643 6.83205 1.2771 4.34469 3.54863C2.55843 5.19609 1.25014 7.29526 0.558315 9.62493C-0.133355 11.9542 -0.183406 14.4272 0.413956 16.7826C1.01129 19.1377 2.23381 21.2888 3.95228 23.0067ZM14.9162 19.7535C13.1535 19.0943 11.5526 18.0645 10.222 16.7336C8.89101 15.4029 7.86125 13.8021 7.20209 12.0394C6.89754 11.2221 6.83402 10.335 7.01879 9.48276C7.20359 8.6305 7.629 7.84942 8.24451 7.23177L8.97424 6.50204C9.04804 6.42526 9.14984 6.38206 9.25633 6.38249H9.32692C9.46058 6.40003 9.57608 6.48429 9.63339 6.6062L11.2614 9.97898L10.3415 10.8989C10.1466 11.0967 10.0141 11.3471 9.95952 11.6196C9.90498 11.8919 9.93129 12.1742 10.035 12.4319C10.8214 14.4718 12.4193 16.094 14.4472 16.9114L14.5362 16.9452C14.8039 17.0522 15.0978 17.0765 15.3797 17.0154C15.6615 16.9542 15.9186 16.8101 16.1182 16.6017L16.9796 15.7065L20.3524 17.3285C20.4702 17.3856 20.5532 17.4959 20.575 17.6249C20.5971 17.7539 20.5552 17.8856 20.4628 17.9784L19.733 18.7081C19.1149 19.326 18.3324 19.7531 17.4782 19.9383C16.6242 20.1238 15.7349 20.0596 14.9162 19.7535Z" fill="#1D2B3A"/>
</svg>
